<?xml version="1.0" encoding="UTF-8"?>
<svg width="176px" height="176px" viewBox="0 0 176 176" version="1.1" xmlns="http://www.w3.org/2000/svg" xmlns:xlink="http://www.w3.org/1999/xlink">
    <!-- Generator: Sketch 43.1 (39012) - http://www.bohemiancoding.com/sketch -->
    <title>Page 1</title>
    <desc>Created with Sketch.</desc>
    <defs></defs>
    <g id="Page-1" stroke="none" stroke-width="1" fill="none" fill-rule="evenodd">
        <g id="Sent" transform="translate(-100.000000, -119.000000)">
            <g id="Page-1" transform="translate(100.000000, 120.000000)">
                <path d="M137.885553,91 L147.114447,91 C147.603355,91 148,90.7761557 148,90.5002433 C148,90.2238443 147.603355,90 147.114447,90 L137.885553,90 C137.396645,90 137,90.2238443 137,90.5002433 C137,90.7761557 137.396645,91 137.885553,91" id="Fill-1" fill="#9EADB5"></path>
                <path d="M151.860134,91 L154.140704,91 C154.615578,91 155,90.7761557 155,90.5002433 C155,90.2238443 154.615578,90 154.140704,90 L151.860134,90 C151.38526,90 151,90.2238443 151,90.5002433 C151,90.7761557 151.38526,91 151.860134,91" id="Fill-3" fill="#9EADB5"></path>
                <path d="M164.619444,99.5 C164.619444,100.537475 165.462248,101.381949 166.500394,101.381949 C167.537752,101.381949 168.381344,100.537475 168.381344,99.5 C168.381344,98.4625253 167.537752,97.6180509 166.500394,97.6180509 C165.462248,97.6180509 164.619444,98.4625253 164.619444,99.5 M163,99.5 C163,97.5699977 164.570609,96 166.500394,96 C168.430179,96 170,97.5699977 170,99.5 C170,101.430002 168.430179,103 166.500394,103 C164.570609,103 163,101.430002 163,99.5" id="Fill-5" fill="#9EADB5"></path>
                <path d="M127.618839,14.4996062 C127.618839,15.5369641 128.462525,16.3821312 129.5,16.3821312 C130.537475,16.3821312 131.381161,15.5369641 131.381161,14.4996062 C131.381161,13.4622482 130.537475,12.6178688 129.5,12.6178688 C128.462525,12.6178688 127.618839,13.4622482 127.618839,14.4996062 M126,14.4996062 C126,12.5698211 127.569998,11 129.5,11 C131.430002,11 133,12.5698211 133,14.4996062 C133,16.4293912 131.430002,18 129.5,18 C127.569998,18 126,16.4293912 126,14.4996062" id="Fill-7" fill="#9EADB5"></path>
                <path d="M26.6180509,50.5003939 C26.6180509,51.5379854 27.4617376,52.381767 28.5,52.381767 C29.5374747,52.381767 30.3819491,51.5379854 30.3819491,50.5003939 C30.3819491,49.4628025 29.5374747,48.618233 28.5,48.618233 C27.4617376,48.618233 26.6180509,49.4628025 26.6180509,50.5003939 M25,50.5003939 C25,48.5701745 26.5699977,47 28.5,47 C30.4300023,47 32,48.5701745 32,50.5003939 C32,52.4306134 30.4300023,54 28.5,54 C26.5699977,54 25,52.4306134 25,50.5003939" id="Fill-9" fill="#9EADB5"></path>
                <path d="M139.718048,68 C139.718048,69.2580982 140.742188,70.2821317 141.999582,70.2821317 C143.258648,70.2821317 144.281952,69.2580982 144.281952,68 C144.281952,66.7410658 143.258648,65.7187043 141.999582,65.7187043 C140.742188,65.7187043 139.718048,66.7410658 139.718048,68 M138,68 C138,65.7939394 139.794963,64 141.999582,64 C144.205037,64 146,65.7939394 146,68 C146,70.2060606 144.205037,72 141.999582,72 C139.794963,72 138,70.2060606 138,68" id="Fill-11" fill="#9EADB5"></path>
                <path d="M151.243315,47.7560951 C151.568546,48.0813016 152.09654,48.0813016 152.421772,47.7560951 L158.756077,41.4222718 C159.081308,41.0970652 159.081308,40.5699224 158.756077,40.2439049 C158.430845,39.9186984 157.903662,39.9186984 157.578431,40.2439049 L151.243315,46.5777282 C150.918895,46.9029348 150.918895,47.4308885 151.243315,47.7560951" id="Fill-13" fill="#9EADB5"></path>
                <path d="M151.243905,41.422087 L157.577728,47.7568015 C157.902935,48.0812012 158.430078,48.0812012 158.756095,47.7559905 C159.081302,47.4307799 159.081302,46.9028194 158.756095,46.5776087 L152.422272,40.2445162 C152.097065,39.9184946 151.569111,39.9184946 151.243905,40.2445162 C150.918698,40.5689159 150.918698,41.0976874 151.243905,41.422087" id="Fill-15" fill="#9EADB5"></path>
                <path d="M145.24393,150.75607 C145.569169,151.08131 146.097176,151.08131 146.422416,150.75607 L152.75607,144.422416 C153.08131,144.097176 153.08131,143.56998 152.75607,143.24393 C152.43002,142.91869 151.903635,142.91869 151.578395,143.24393 L145.24393,149.578395 C144.91869,149.903635 144.91869,150.430831 145.24393,150.75607" id="Fill-17" fill="#9EADB5"></path>
                <path d="M145.244323,144.422105 L151.578467,150.756089 C151.90369,151.081304 152.430049,151.081304 152.756083,150.756089 C153.081306,150.430063 153.081306,149.903718 152.756083,149.577692 L146.421939,143.244519 C146.096716,142.918494 145.568735,142.918494 145.243512,143.244519 C144.918289,143.569734 144.9191,144.09689 145.244323,144.422105" id="Fill-19" fill="#9EADB5"></path>
                <path d="M14.2436194,81.7560704 C14.5688507,82.0813099 15.0968446,82.0813099 15.4220758,81.7560704 L21.7563806,75.422416 C22.0816119,75.0971765 22.0808008,74.5699802 21.7563806,74.2439296 C21.4303383,73.9186901 20.9031554,73.9186901 20.5779242,74.2439296 L14.2436194,80.5783951 C13.9183881,80.9036346 13.9191992,81.4316419 14.2436194,81.7560704" id="Fill-21" fill="#9EADB5"></path>
                <path d="M14.2439296,75.4220329 L20.5783951,81.7556954 C20.9036346,82.0808937 21.4300198,82.0817047 21.7560704,81.7565064 C22.0813099,81.4304971 22.0813099,80.9033677 21.7560704,80.5773585 L15.4216049,74.2445069 C15.0971765,73.9184977 14.5691692,73.9184977 14.2439296,74.2445069 C13.9186901,74.5697052 13.9186901,75.0968346 14.2439296,75.4220329" id="Fill-23" fill="#9EADB5"></path>
                <path d="M23.6180509,160.5 C23.6180509,161.537475 24.4617376,162.382737 25.4992122,162.382737 C26.5374747,162.382737 27.3811614,161.537475 27.3811614,160.5 C27.3811614,159.462525 26.5374747,158.617263 25.4992122,158.617263 C24.4617376,158.617263 23.6180509,159.462525 23.6180509,160.5 M22,160.5 C22,158.569998 23.56921,157 25.4992122,157 C27.4300023,157 29,158.569998 29,160.5 C29,162.430002 27.4300023,164 25.4992122,164 C23.56921,164 22,162.430002 22,160.5" id="Fill-25" fill="#9EADB5"></path>
                <path d="M1.61823298,104.500394 C1.61823298,105.537985 2.46201463,106.381767 3.50039392,106.381767 C4.53719752,106.381767 5.38176702,105.537985 5.38176702,104.500394 C5.38176702,103.462802 4.53719752,102.618233 3.50039392,102.618233 C2.46201463,102.618233 1.61823298,103.462802 1.61823298,104.500394 M0,104.500394 C0,102.570174 1.56938661,101 3.50039392,101 C5.42982555,101 7,102.570174 7,104.500394 C7,106.430613 5.42982555,108 3.50039392,108 C1.56938661,108 0,106.430613 0,104.500394" id="Fill-27" fill="#9EADB5"></path>
                <path d="M54.5631369,78.5769205 C52.8677028,77.7348743 51.7294133,76.2859255 50.3862661,75.0597008 C50.1719797,74.8634717 49.8865502,74.6266721 50.0468364,74.3302585 C50.2362656,73.9833388 50.5396952,74.2060629 50.8062675,74.317839 C51.1345543,74.4544541 51.4696982,74.6399196 51.8134136,74.6697265 C53.6682768,74.8286969 55.252282,75.6268607 56.7454297,76.609662 C57.4020033,77.0402068 57.9000049,76.950786 58.5171498,76.5310048 C61.608017,74.430443 65.0400282,72.8920733 68.2954674,71.0630859 C68.4240392,70.9902245 68.6674686,70.975321 68.7840404,71.0456985 C69.0008982,71.1765179 69.0394698,71.4381567 68.9657553,71.6683326 C68.7780404,72.249568 68.3117531,72.6287786 67.8360373,72.9790103 C66.0771744,74.2756125 64.3020258,75.5548273 62.5388772,76.8489456 C61.737446,77.4384607 60.9523006,78.0503311 60.201441,78.619147 C60.3420128,79.1175854 60.6994426,79.2525447 60.9737292,79.468645 C62.4565912,80.6418796 63.9145959,81.8399533 65.1506,83.2665469 C65.3794578,83.5306696 65.6657445,83.7533937 65.7300304,84.1210127 C65.7728877,84.3602963 65.7600305,84.6078595 65.5303155,84.7328831 C65.3957436,84.8057445 65.1557428,84.8256158 65.0263138,84.7585502 C64.5523123,84.5167827 64.1014537,84.2327888 63.6471665,83.9537626 C61.9834468,82.9279069 60.3128699,81.9128147 58.6671502,80.8621198 C58.1262913,80.517684 57.71229,80.5657063 57.223717,80.9474008 C55.9208556,81.9658048 54.5957084,82.9585418 53.2654183,83.9413431 C52.7939882,84.2907467 52.3028438,84.6318707 51.7756992,84.8918535 C51.0411254,85.2569886 50.1171224,84.6434623 50.1831226,83.8602019 C50.2362656,83.207761 50.479695,82.61245 50.9811252,82.15955 C51.5914129,81.6072935 52.2291293,81.08236 52.8711313,80.5640504 C53.422276,80.1186021 54.0025636,79.7087566 54.5562797,79.2674481 C54.8665664,79.0231968 54.881995,78.7367189 54.5631369,78.5769205" id="Fill-29" fill="#9EADB5"></path>
                <path d="M138.744735,40.999627 C137.855271,40.9751036 137.221273,40.0939533 136.527015,39.52907 C135.240348,38.4813298 133.926521,37.4691063 132.618635,36.4475808 C128.975056,33.5994865 124.881653,31.654529 120.42924,30.4275145 C117.285561,29.5598943 114.097748,28.8833873 110.916725,28.173055 C106.682433,27.2259453 102.40316,26.6754378 98.0627776,26.4724857 C94.39204,26.3016677 90.7272435,25.9574947 87.0624469,25.6479928 C81.9599095,25.2167196 76.8794389,25.0678881 71.8600765,26.3896136 C71.1199879,26.5841093 70.3366143,26.6145521 69.5150481,26.7287127 C68.9175453,26.6830485 68.2742114,26.5967938 67.6699189,26.3219629 C67.4102089,26.2044198 67.0630802,26.1705944 67.0070643,25.8128914 C66.9535946,25.4687185 67.2133046,25.2843703 67.4602837,25.1245455 C68.8089085,24.2459321 70.2373134,23.5060026 71.799817,23.1220849 C74.9214292,22.3567864 78.0931163,21.907755 81.3140294,22.0159961 C83.3883144,22.085338 85.4600533,22.2536191 87.5292459,22.4049876 C91.7287395,22.711107 95.922292,23.0755751 100.123483,23.3377215 C102.734163,23.5026201 105.32617,23.7766054 107.884229,24.2992071 C111.482825,25.0349084 115.072933,25.8196564 118.646916,26.6635989 C122.828587,27.6529903 126.776857,29.2385535 130.426377,31.5226101 C132.892773,33.0684285 135.128316,34.9254401 137.438547,36.6843582 C138.641191,37.5993339 139.995756,38.5481349 140,40.1565302 C140,40.4541932 139.326112,41.0165397 138.744735,40.999627" id="Fill-31" fill="#9EADB5"></path>
                <path d="M102.652847,76.4657309 C104.39302,77.7307934 106.164517,78.9549375 107.788459,80.3819689 C108.137977,80.6888574 108.483374,81.0102378 108.778486,81.3691269 C109.065355,81.7194912 109.069477,82.1320857 108.814757,82.525926 C108.61197,82.8404867 108.198978,82.9359631 107.729107,82.6870424 C107.014408,82.3068417 106.320317,81.8814602 105.623753,81.4637508 C103.782187,80.3649196 101.937323,79.2669408 100.105649,78.1485027 C99.7000757,77.901287 99.3752874,77.8791229 99.0397827,78.2465366 C98.8427665,78.460506 98.6127768,78.6437867 98.3984494,78.8424117 C96.5560588,80.5507576 94.7161413,82.2608084 92.8688046,83.964892 C92.5267053,84.2820101 92.1681192,84.5812263 91.8004654,84.8642457 C91.6108682,85.0100177 91.3800541,85.0364442 91.1459427,84.9529024 C90.0644141,84.5667344 89.683571,83.5488876 90.2845118,82.5651395 C90.46669,82.2701856 90.7263558,82.0170026 90.9794269,81.7774591 C91.6141655,81.1730592 92.2686882,80.5899711 92.9108458,79.9949485 C94.1448765,78.846674 95.3764343,77.6958422 96.7942919,76.3728119 C96.0754711,75.9866439 95.6295054,75.7283461 95.169526,75.5032945 C94.2866623,75.0693883 93.3955552,74.6559413 92.5077455,74.2322647 C91.772438,73.8801954 91.0791715,73.4590762 90.5103798,72.8529715 C90.0578194,72.373032 89.9687912,71.8973548 90.2276326,71.3978086 C90.4980148,70.8743932 90.9373858,70.6544565 91.5020558,70.6484892 C91.9826436,70.6442269 92.3997576,70.8479667 92.8127498,71.0517066 C94.4729622,71.8683709 96.1290529,72.6986748 97.7851436,73.5221589 C99.2829618,74.2672159 98.8543072,74.4317422 100.296071,73.2135654 C100.384274,73.1385483 100.474127,73.0643835 100.56398,72.9876614 C102.430276,71.4020709 104.296572,69.8147755 106.164517,68.2308899 C106.342574,68.0808556 106.531347,67.9282638 106.779472,68.0365272 C107.091895,68.1720696 107.14795,68.4653186 107.157842,68.7705022 C107.170207,69.2572614 107.090246,69.7192991 106.786891,70.1139918 C106.463751,70.5317011 106.170288,70.9783943 105.810877,71.3594475 C104.688956,72.5529027 103.539008,73.719079 102.408019,74.9040095 C102.173083,75.1512252 101.86066,75.3617848 101.884566,75.8596261 C102.114555,76.0403494 102.37587,76.2645484 102.652847,76.4657309" id="Fill-33" fill="#9EADB5"></path>
                <path d="M165.417264,117.0493 L174.182131,119.772262 C174.785137,119.958668 175.131779,120.628483 174.952922,121.259946 L173.003376,128.142716 C172.824518,128.774179 172.18489,129.138073 171.582736,128.950775 L162.817869,126.227813 C162.214863,126.040515 161.868221,125.371592 162.047078,124.740129 L163.996624,117.856467 C164.175482,117.225004 164.81511,116.862001 165.417264,117.0493 Z" id="Stroke-35" stroke="#9EADB5" stroke-width="1.5"></path>
                <polyline id="Stroke-37" stroke="#9EADB5" stroke-width="1.5" points="175 120.570983 168.357587 123 164 117"></polyline>
                <path d="M86.4172625,0.0492998374 L95.1829786,2.77226175 C95.7851319,2.95866825 96.1317745,3.62848299 95.9529171,4.25994615 L94.0033715,11.1427162 C93.8245141,11.7741794 93.1857376,12.1380734 92.5827327,11.950775 L83.8178683,9.22781312 C83.2148633,9.04140662 82.8682206,8.37159188 83.047078,7.74012872 L84.9966237,0.856466732 C85.1754811,0.22500357 85.8151093,-0.137998558 86.4172625,0.0492998374 Z" id="Stroke-39" stroke="#9EADB5" stroke-width="1.5"></path>
                <polyline id="Stroke-41" stroke="#9EADB5" stroke-width="1.5" points="96 3.57098284 89.3575871 6 85 0"></polyline>
                <path d="M4.79317032,134.91718 L13.4592807,132.055132 C14.0555416,131.858388 14.6966915,132.205116 14.8864108,132.826226 L16.9470682,139.596682 C17.1359407,140.217792 16.8030848,140.886545 16.2076708,141.082406 L7.54071352,143.944455 C6.9444526,144.142081 6.30245577,143.795353 6.11443031,143.174242 L4.05292595,136.403786 C3.86405353,135.782676 4.19690941,135.114806 4.79317032,134.91718 Z" id="Stroke-43" stroke="#9EADB5" stroke-width="1.5"></path>
                <polyline id="Stroke-45" stroke="#9EADB5" stroke-width="1.5" points="15 133 10.7198812 139 4 136.740775"></polyline>
                <g id="Group-49" transform="translate(25.000000, 31.000000)" fill="#9EADB5">
                    <path d="M126.672229,92.3896376 C125.167512,89.8154259 123.290222,87.5334494 121.213492,85.4047906 C117.817058,81.9191435 114.267012,78.6054494 110.35288,75.6941082 C109.830939,75.3044612 109.331913,74.8834729 108.815913,74.4845082 C108.470499,74.2151435 108.262571,73.8771671 108.218439,73.4383906 C108.170064,72.9674259 108.108111,72.4998494 108.074163,72.0263435 C107.764393,67.7173553 107.452926,63.4109082 107.240755,59.0942965 C107.085446,55.9059671 106.700143,52.7269553 106.359821,49.5496376 C106.146801,47.5488847 105.848913,45.5582965 105.559512,43.5668612 C105.150446,40.74192 104.283091,38.0389553 103.32238,35.3630965 C102.962538,34.3610259 102.586571,33.3640376 102.194479,32.3746729 C102.141861,32.2374494 101.965334,32.0917553 101.822755,32.0629553 C101.644532,32.0265318 101.535051,32.20272 101.4714,32.3729788 C101.251591,32.9532141 101.324578,33.5385318 101.428117,34.1255435 C101.718367,35.7569788 102.047657,37.3833318 102.292078,39.0215435 C102.754611,42.1226259 103.188288,45.2304847 103.596505,48.3391906 C104.143907,52.50672 104.573341,56.6903435 104.729499,60.8900612 C104.881413,64.9754259 105.2769,69.0396141 105.543387,73.11312 C105.592611,73.8839435 105.837032,74.5251671 106.480334,74.9182024 C107.065078,75.2756612 107.428314,75.7982965 107.823801,76.3124612 C108.909268,77.7287435 110.153439,78.9891671 111.52067,80.1394729 C115.426314,83.4294494 119.135913,86.9201788 122.360913,90.8945788 C123.334354,92.0957082 124.158426,93.3925553 124.828038,94.7876612 C125.268505,95.70672 125.551966,96.6672847 125.598643,97.6846024 C125.654657,98.8764141 125.387321,99.2821553 124.253479,99.6514729 C123.178196,100.002155 122.060479,100.140226 120.931729,100.218155 C117.850157,100.432461 114.764341,100.460414 111.696347,100.119896 C110.676229,100.007238 109.849611,100.424838 108.954249,100.661167 C108.523117,100.774673 108.38563,101.252414 108.383933,101.68272 C108.380538,102.451849 108.349137,103.230296 108.443341,103.991802 C108.929637,107.934861 109.148597,111.889779 109.097676,115.862485 C109.079005,117.409214 109.313242,118.935614 109.537295,120.456085 C109.892045,122.862579 110.091486,125.275849 110.131374,127.705214 C110.140709,128.295614 110.131374,128.891096 110.086393,129.479802 C109.909867,131.832932 109.42442,133.004414 107.933282,134.768838 C107.540341,135.23472 107.027736,135.519332 106.497308,135.792932 C103.503999,137.332885 100.390176,137.599708 97.1762092,136.639144 C96.2129526,136.354532 95.2768539,135.972508 94.3399066,135.605732 C93.070275,135.109355 91.8133737,134.582485 90.5496829,134.072555 C85.749525,132.136179 81.1454132,132.711332 76.6949132,135.166955 C75.2911895,135.942014 73.9833671,136.866155 72.6899724,137.809779 C71.5858342,138.614485 70.4375645,139.348038 69.1857553,139.903708 C68.1469658,140.363661 67.0631961,140.674532 65.9251105,140.718579 C59.7500842,140.957449 53.886525,139.903708 48.5321763,136.621355 C46.7168408,135.506626 44.8217289,134.518955 42.93765,133.519426 C40.470525,132.208179 37.8251763,131.649967 35.0355513,131.864273 C33.4357816,131.986249 31.8674132,132.334391 30.3329921,132.783332 C28.2851171,133.383049 26.2448803,133.393214 24.1783342,132.939191 C22.8212882,132.641873 21.5813605,132.134485 20.5926434,131.112932 C20.1801829,130.687708 19.71765,130.312461 19.3009461,129.889779 C18.0211303,128.593779 17.1656566,127.070767 16.7905382,125.275002 C16.2482289,122.662673 15.8943276,120.033402 15.8026697,117.360085 C15.7178013,114.817214 15.4334921,112.277732 15.3969987,109.736555 C15.3061895,103.403944 15.5506105,97.0798024 15.6617882,90.7378729 C15.7916368,83.3006965 10.8556895,81.4261553 9.87630789,80.8764141 C7.68924868,79.65072 5.76697895,78.0785788 3.89478158,76.4318965 C3.65799868,76.22352 2.46729474,74.8453553 2.42061711,73.63152 C2.35696579,71.9958494 3.85489342,70.6896847 4.38956447,70.5262024 C7.40069605,69.6113788 10.2590645,68.2992847 13.1624132,67.1074729 C13.9822421,66.7737318 14.7681237,66.3493553 15.5599461,65.9461553 C16.3220645,65.5590494 16.6089197,64.9102024 16.6640842,64.0682259 C16.8457026,61.2890259 16.8431566,58.5089788 16.8185447,55.7255435 C16.7973276,53.4766024 16.7413145,51.2234259 16.7913868,48.9753318 C16.8261829,47.4997553 16.9772487,46.0216376 17.1546237,44.5536847 C17.5450184,41.3255435 17.8496961,38.0830024 18.5812618,34.9014494 C19.3544132,31.5352376 20.4891039,28.3113318 22.1550711,25.2797082 C22.3808211,24.8663435 22.6328803,24.4639906 22.8951237,24.0701082 C22.9986632,23.9134024 23.1896171,23.8913788 23.3635974,23.9667671 C23.5273934,24.0353788 23.6860974,24.1200847 23.8371632,24.2124141 C27.6121105,26.5358965 31.730775,27.9886024 35.9996566,29.09232 C42.8706039,30.8702965 49.8578211,31.6089318 56.9460316,31.7004141 C62.1705316,31.7673318 67.3806039,31.6385788 72.5804921,31.1998024 C76.7161303,30.8499671 80.8577092,30.5297788 84.9543079,29.8250259 C87.2669724,29.4269082 89.4124461,28.6425318 91.2574855,27.1347671 C91.8524132,26.6485553 92.5339066,26.2707671 93.1534461,25.8125082 C93.2493474,25.7422024 93.2374658,25.5024847 93.2332224,25.3432376 C93.2332224,25.3152847 93.0151105,25.2551435 92.909025,25.2737788 C88.5315118,26.0344376 84.1438145,26.7468141 79.7315053,27.2474259 C70.8831237,28.2511906 62.0024921,28.7543435 53.0921566,28.3528376 C46.0081895,28.0343435 39.0693474,26.8628612 32.2943013,24.7655435 C29.8526368,24.00912 27.5272421,22.9689318 25.2867158,21.7415435 C24.7698671,21.4569318 24.7189461,21.2273788 25.0813342,20.7521788 C27.8548342,17.09712 30.9618671,13.7749553 34.7750053,11.1685553 C35.0644066,10.9703435 42.7848868,5.77872 46.5606829,5.00620235 C50.6267289,4.17269647 54.7335118,3.55434353 58.8929132,3.39509647 C59.7789395,3.36121412 60.6692092,3.44761412 61.5569329,3.47810824 C64.9389395,3.58992 68.3167026,3.81100235 71.6622158,4.29382588 C75.2088671,4.80883765 78.5891763,5.88460235 81.6138868,7.89382588 C83.2425118,8.97552 84.8864132,10.0368847 86.5158868,11.1168847 C87.9518605,12.0664376 89.3114526,13.1159435 90.6124855,14.2442259 C91.1471566,14.7075671 91.7437816,15.0989082 92.3225842,15.5080376 C92.4948671,15.6300141 92.6875184,15.5359906 92.7910579,15.3962259 C92.8878079,15.2674729 92.9871039,15.0574024 92.9455184,14.9278024 C92.8581039,14.6542024 92.7146763,14.3822965 92.5330579,14.15952 C92.0111171,13.5140612 91.5002092,12.8542024 90.9137684,12.2705788 C87.7990974,9.16780235 84.5062026,6.26493176 80.7049461,4.02192 C77.9704855,2.40912 74.9559592,1.52394353 71.8217684,1.05382588 C67.7693013,0.443943529 63.6727026,0.326202353 59.5896829,0.0924141176 C58.2979855,0.0195670588 56.9850711,0.199143529 55.6899789,0.336367059 C52.3283408,0.692978824 48.9836763,1.17495529 45.6789,1.89410824 C42.8061039,2.51839059 40.1811237,3.73222588 37.7606763,5.39246118 C37.3982882,5.64234353 37.1148276,5.83886118 36.8890776,5.94897882 C35.7068605,6.73674353 34.2598539,7.73542588 33.0114395,8.69514353 C33.0182289,8.70700235 33.0267158,8.71801412 33.0335053,8.72987294 C32.6685711,8.99330824 32.3121237,9.26182588 31.9616171,9.53457882 C31.5958342,9.84121412 30.5205513,10.8017788 30.2404855,10.9415435 C29.9697553,11.1736376 29.7007224,11.4074259 29.4350842,11.6462965 C27.1699461,13.6665318 25.1916632,15.9442729 23.3228605,18.3236612 C23.1013539,18.6031906 22.9027618,18.8979671 22.6761632,19.1715671 C22.2433342,19.6950494 22.0379526,19.7289318 21.5015842,19.2681318 C19.9722553,17.9492612 18.5193079,16.5626259 17.3430316,14.9032376 C15.8103079,12.7390024 15.3545645,10.3918024 15.992775,7.82267294 C16.1633605,7.13655529 16.3186697,6.44366118 16.4527618,5.74907294 C16.4833145,5.59067294 16.4239066,5.38653176 16.1939132,5.36704941 C16.0852816,5.35688471 15.9376105,5.35688471 15.8646237,5.41872 C15.6864,5.56864941 15.5166632,5.74144941 15.3876632,5.93373176 C14.4184658,7.38897882 13.832025,9.00093176 13.6181566,10.7221553 C13.3745842,12.6661553 13.799775,14.4653082 14.8860908,16.1348612 C16.1625118,18.0983435 17.8123539,19.7009788 19.5385776,21.2451671 C19.8441039,21.51792 20.1674526,21.7737318 20.4373342,21.9990494 C20.5705776,22.5293082 20.2828737,22.85712 20.0902224,23.2086494 C17.6137618,27.7285553 16.1760908,32.5838965 15.3851171,37.6484612 C14.8080118,41.3340141 14.3607553,45.0348141 14.10615,48.7534024 C13.9983671,50.3441788 14.090025,51.9485082 14.0925711,53.5460612 C14.0959658,56.2083671 14.1621632,58.8749082 14.0891763,61.5363671 C14.0382553,63.3770259 13.9567816,63.3897318 12.2602618,64.0936376 C10.1258211,64.9796612 7.98289342,65.8487435 5.83657105,66.7008847 C5.28916974,66.9185788 1.45820921,68.4924141 0.872617105,70.2924141 C-1.12688289,76.4327435 3.84555789,80.0894965 4.23934737,80.3961318 C6.29995263,82.0021553 8.50059079,83.4023435 10.7623342,84.7059671 C11.3759329,85.0583435 13.1148868,87.0819671 13.0758474,87.95952 C12.7491039,94.9985788 12.6701763,102.04272 12.7372224,109.089402 C12.7533474,110.626814 12.8110579,112.171849 12.9672158,113.698249 C13.26765,116.64432 13.1301632,119.620038 13.6334329,122.546626 C13.8634263,123.88752 14.1137882,125.225026 14.380275,126.559144 C14.7256895,128.285449 15.5463671,129.790673 16.6869987,131.104461 C17.8946763,132.494485 19.2330513,133.748979 20.7844461,134.766296 C23.5273934,136.564602 26.5224,136.84752 29.6574395,136.238485 C30.9372553,135.989449 32.2034921,135.673496 33.4731237,135.379567 C36.7532882,134.619755 39.8441961,135.254202 42.7806434,136.733167 C44.5790053,137.63952 46.3171105,138.664461 48.0611566,139.66992 C50.8991566,141.310673 53.8457882,142.675285 57.0826697,143.32752 C60.1829132,143.951802 63.3179526,144.126296 66.4665711,143.913685 C68.5899789,143.771379 70.4749066,142.888744 72.2316829,141.745214 C73.4724592,140.934579 74.6665579,140.054485 75.8886632,139.216744 C77.7659526,137.933449 79.8104329,137.006767 82.0204066,136.468885 C84.5817355,135.846296 87.0972355,136.167332 89.5405974,137.036414 C91.4374066,137.71152 93.3028145,138.477261 95.1699197,139.234532 C97.2873868,140.093449 99.4608671,140.560179 101.760801,140.416179 C104.127782,140.266249 106.274953,139.475096 108.294821,138.297685 C109.123137,137.813167 109.808025,137.158391 110.318933,136.336744 C110.474242,136.085167 110.58542,135.756508 110.812867,135.604885 C111.926341,134.857779 112.021393,133.705779 112.260722,132.530908 C112.956643,129.110485 112.780966,125.688367 112.388874,122.279802 C111.961137,118.569685 111.545282,114.872273 111.608084,111.131661 C111.647972,108.758202 111.399308,106.404226 110.941867,104.073967 C110.909617,103.908791 110.937624,103.734296 110.937624,103.553026 C111.586018,103.237073 112.247992,103.400555 112.873472,103.486955 C116.017847,103.91472 119.151189,103.624179 122.282834,103.364979 C123.167163,103.292132 124.029426,103.068508 124.881505,102.792367 C127.239999,102.031708 128.395907,100.289308 128.259268,97.7896376 C128.154032,95.8735906 127.649064,94.0600376 126.672229,92.3896376" id="Fill-47"></path>
                </g>
                <polygon id="Stroke-50" stroke="#9EADB5" stroke-width="1.5" points="56.1086592 22 57.9346369 28.0857421 64 30.0366538 58.7558659 33.6478448 58.7684358 40 53.7019553 36.1457802 47.6441341 38.1209112 49.7567039 32.1278708 46 26.9958706 52.372067 27.1461977"></polygon>
                <polygon id="Stroke-52" stroke="#9EADB5" stroke-width="1.5" points="130.986082 43 132.609026 48.4101082 138 50.1442682 133.339519 53.3536829 133.350485 59 128.8469 55.5745508 123.460987 57.3297258 125.339519 52.002837 122 47.4408952 127.664277 47.5745508"></polygon>
            </g>
        </g>
    </g>
</svg>