<?xml version="1.0" encoding="utf-8"?>
<!-- Generator: Adobe Illustrator 21.0.0, SVG Export Plug-In . SVG Version: 6.00 Build 0)  -->
<svg version="1.1" id="Layer_1" xmlns="http://www.w3.org/2000/svg" xmlns:xlink="http://www.w3.org/1999/xlink" x="0px" y="0px"
	 viewBox="0 0 595.3 841.9" style="enable-background:new 0 0 595.3 841.9;" xml:space="preserve">
<style type="text/css">
	.st0{fill:#19566C;}
	.st1{fill:#FFFEFF;}
</style>
<path class="st0" d="M28.6,15.3c0.2,0.1,0.5,0.1,0.7,0.1c0.8,0.1,1.6,0.3,2.5,0.6c0,0.1-0.1,0.1-0.1,0.1c-0.5,0.5-1,1-1.4,1.4
	c-0.1,0.1-0.2,0.1-0.3,0.1c-2.6-0.6-5-0.2-7.1,1.4c-1.8,1.3-2.9,3.1-3.3,5.3c-0.8,4,1.6,8.1,5.4,9.4c4.7,1.7,9.9-1.1,11-6
	c0.1-0.6,0.2-1.1,0.2-1.7c0-0.1,0-0.2,0.2-0.2c0.6,0,1.3,0,1.9,0c0,0.3,0,0.6,0,0.9c-0.1,0.3-0.1,0.6-0.1,0.9
	c-0.3,2-1.1,3.8-2.5,5.2c-2.8,3.1-6.3,4.2-10.4,3.2c-5.2-1.2-8.7-6.3-7.9-11.8c0.3-2.1,1.2-4,2.7-5.6c1.7-1.8,3.7-2.8,6.1-3.2
	c0.2,0,0.5,0,0.7-0.1C27.5,15.3,28.1,15.3,28.6,15.3z"/>
<path class="st1" d="M27,15.3c-0.2,0.1-0.5,0.1-0.7,0.1c-2.4,0.4-4.4,1.5-6.1,3.2c-1.5,1.6-2.4,3.4-2.7,5.6
	c-0.8,5.4,2.7,10.5,7.9,11.8c4.1,1,7.6-0.2,10.4-3.2c1.4-1.5,2.2-3.2,2.5-5.2c0-0.3,0-0.6,0.1-0.9c0,3.2,0,6.3,0,9.5
	c0,0.1,0,0.2-0.2,0.2c-6.9,0-13.8,0-20.7,0c-0.1,0-0.2,0-0.2-0.2c0-6.9,0-13.8,0-20.7c0-0.1,0-0.2,0.2-0.2
	C20.6,15.3,23.8,15.3,27,15.3z"/>
<path class="st0" d="M26.8,30c0,0-0.1-0.1-0.1-0.1c-1.1-1-2.1-2.1-3.2-3.1c-0.4-0.4-0.9-0.9-1.3-1.3c-0.1-0.1-0.1-0.1,0-0.2
	c0.4-0.4,0.8-0.8,1.2-1.2c0.1-0.1,0.2-0.1,0.3,0c1,1,2,2,3,3c0.1,0.1,0.2,0.1,0.3,0c2.9-2.9,5.8-5.9,8.6-8.8c0.1-0.1,0.2-0.2,0.3,0
	c0.4,0.4,0.8,0.8,1.2,1.2c0.1,0.1,0.1,0.1,0,0.2C33.7,23,30.3,26.4,27,29.9C26.9,29.9,26.9,29.9,26.8,30z"/>
</svg>
