<?xml version="1.0" encoding="UTF-8" standalone="no"?>
<svg
   xmlns:dc="http://purl.org/dc/elements/1.1/"
   xmlns:cc="http://creativecommons.org/ns#"
   xmlns:rdf="http://www.w3.org/1999/02/22-rdf-syntax-ns#"
   xmlns:svg="http://www.w3.org/2000/svg"
   xmlns="http://www.w3.org/2000/svg"
   viewBox="0 0 793.70667 1122.52"
   height="1122.52"
   width="793.70667"
   xml:space="preserve"
   id="svg2"
   version="1.1"><metadata
     id="metadata8"><rdf:RDF><cc:Work
         rdf:about=""><dc:format>image/svg+xml</dc:format><dc:type
           rdf:resource="http://purl.org/dc/dcmitype/StillImage" /></cc:Work></rdf:RDF></metadata><defs
     id="defs6" /><g
     transform="matrix(1.3333333,0,0,-1.3333333,0,1122.52)"
     id="g10"><g
       transform="scale(0.1)"
       id="g12"><path
         id="path14"
         style="fill:#255369;fill-opacity:1;fill-rule:nonzero;stroke:none"
         d="m 67.6758,8263.79 c 0.9101,2.28 0.7617,4.75 1.1367,7.12 3.7852,23.94 14.5352,44.22 32.1405,60.79 15.75,14.83 34.399,23.88 55.809,27.3 18.644,2.97 36.64,0.18 54.347,-5.64 0.383,-0.13 0.77,-0.24 1.172,-0.36 0.168,-0.82 -0.547,-1.07 -0.933,-1.45 -4.766,-4.81 -9.578,-9.56 -14.317,-14.39 -0.863,-0.87 -1.551,-1.11 -2.801,-0.8 -25.871,6.3 -49.828,2 -71.316,-13.79 -17.695,-13.01 -28.6679,-30.54 -32.7226,-52.21 -7.3437,-39.23 14.0626,-76.84 49.2106,-92.19 13.649,-5.96 27.922,-7.97 42.75,-6.35 34.25,3.73 63.473,29.18 71.93,63 1.527,6.12 2.383,12.32 2.461,18.61 0.016,1.4 0.43,1.8 1.852,1.78 5.804,-0.08 11.617,-0.09 17.425,0 1.516,0.03 1.93,-0.31 1.891,-1.87 -0.539,-23.77 -8.184,-45 -23.02,-63.53 -15.632,-19.54 -35.82,-31.97 -60.253,-37.41 -4.25,-0.95 -8.563,-1.65 -12.938,-1.85 -0.367,-0.01 -0.848,0.18 -1.031,-0.37 -5.469,0 -10.938,0 -16.406,0 -2.282,0.91 -4.743,0.77 -7.11,1.14 -21.719,3.39 -40.57,12.64 -56.457,27.76 -17.3397,16.51 -27.9413,36.65 -31.6835,60.36 -0.375,2.38 -0.2266,4.84 -1.1367,7.12 0,5.74 0,11.49 0,17.23" /><path
         id="path16"
         style="fill:#255369;fill-opacity:1;fill-rule:nonzero;stroke:none"
         d="m 129.938,8275.3 c 0.414,-0.57 0.714,-1.12 1.14,-1.55 9.899,-9.92 19.828,-19.8 29.684,-29.76 1.156,-1.17 1.718,-1.07 2.816,0.03 29.059,29.12 58.168,58.19 87.207,87.34 1.449,1.46 2.125,1.31 3.438,-0.07 3.863,-4.06 7.855,-7.99 11.875,-11.9 0.957,-0.93 0.98,-1.42 0.019,-2.38 -34.285,-34.24 -68.551,-68.5 -102.781,-102.79 -0.988,-0.99 -1.473,-0.87 -2.391,0.05 -15,15.05 -30.031,30.08 -45.07,45.1 -0.609,0.61 -1.125,1.01 -0.223,1.9 4.399,4.3 8.723,8.68 13.078,13.02 0.274,0.28 0.602,0.5 1.208,1.01" /></g></g></svg>