<?xml version="1.0" encoding="UTF-8"?>
<svg width="33px" height="38px" viewBox="0 0 33 38" version="1.1" xmlns="http://www.w3.org/2000/svg" xmlns:xlink="http://www.w3.org/1999/xlink">
    <!-- Generator: Sketch 43.1 (39012) - http://www.bohemiancoding.com/sketch -->
    <title>Shape</title>
    <desc>Created with Sketch.</desc>
    <defs></defs>
    <g id="Final" stroke="none" stroke-width="1" fill="none" fill-rule="evenodd">
        <g id="Wallet" transform="translate(-171.000000, -151.000000)" fill-rule="nonzero" fill="#17566B">
            <g id="ClockWise" transform="translate(154.000000, 139.000000)">
                <g id="clockwise" transform="translate(17.000000, 12.000000)">
                    <path d="M15.9404382,2.95828047 C12.8402492,2.95828047 9.81723345,3.82523327 7.17534971,5.45373133 L8.48729591,1.71514849 C8.7202362,1.04982387 8.38455599,0.315839292 7.73734182,0.0764964949 C7.08965419,-0.163813344 6.37473583,0.180936988 6.14179555,0.846261611 L3.77451621,7.59089327 C3.66278062,7.91098404 3.67887812,8.26347071 3.81949452,8.57050642 C3.95963745,8.87850917 4.21435671,9.11543436 4.52494376,9.23051231 L11.0936705,11.6606879 C11.2333399,11.7114575 11.3758502,11.7370841 11.51694,11.7370841 C12.0273254,11.7370841 12.5055159,11.4111911 12.6901637,10.8894722 C12.9231039,10.223664 12.5874237,9.4906465 11.9402096,9.2513037 L8.11989416,7.83700536 C8.16487247,7.81573044 8.21079769,7.79735665 8.25340872,7.76979597 C10.5562981,6.29747513 13.2147528,5.51852312 15.9418585,5.51852312 C23.9745108,5.51852312 30.5086752,12.2288248 30.5086752,20.4776897 C30.5086752,28.7265545 23.9745108,35.4378233 15.9418585,35.4378233 C9.9422258,35.4378233 4.62815714,31.7398562 2.40528184,26.0164205 C2.15008913,25.3588322 1.42522819,25.041159 0.785115861,25.3012932 C0.145476984,25.5628779 -0.165583521,26.3079835 0.0886622803,26.9646047 C2.69077573,33.6691042 8.91387965,38 15.9399647,38 C25.3470594,38 33,30.1398859 33,20.4791402 C33.0004735,10.8188781 25.3475328,2.95828047 15.9404382,2.95828047 Z" id="Shape"></path>
                </g>
            </g>
        </g>
    </g>
</svg>