<?xml version="1.0" encoding="utf-8"?>
<!-- Generator: Adobe Illustrator 21.0.0, SVG Export Plug-In . SVG Version: 6.00 Build 0)  -->
<svg version="1.1" id="Capa_1" xmlns="http://www.w3.org/2000/svg" xmlns:xlink="http://www.w3.org/1999/xlink" x="0px" y="0px"
	 viewBox="0 0 512.2 512.2" style="enable-background:new 0 0 512.2 512.2;" xml:space="preserve">
<g>
	<g>
		<path d="M283.9,33.1c-4,1.7-6.6,5.5-6.6,9.9v116.9H10.7c-5.9,0-10.7,4.8-10.7,10.7l0,170.7c0,5.9,4.8,10.7,10.7,10.7h266.7v117.3
			c0,4.3,2.6,8.2,6.6,9.9c4,1.6,8.6,0.7,11.6-2.3L509,264c2-2,3.1-4.7,3.1-7.6c0-2.8-1.1-5.5-3.1-7.6L295.6,35.4
			C292.5,32.4,287.9,31.5,283.9,33.1z"/>
	</g>
</g>
</svg>
